<svg width="250" height="186" viewBox="0 0 250 186" fill="none" xmlns="http://www.w3.org/2000/svg">
<path d="M0 38.1148C0 17.0646 17.048 0 38.0808 0H211.12C232.153 0 249.201 17.0646 249.201 38.1148V147.885C249.201 168.936 232.153 186 211.12 186H38.0808C17.048 186 0 168.936 0 147.885V38.1148Z" fill="#1E1E1E"/>
<path d="M36.4879 66.1671H55.5283V147.58H36.4879V66.1671ZM46.0843 52.7507C42.6296 52.7507 39.7355 51.6835 37.4019 49.549C35.0652 47.3131 33.8984 44.5688 33.8984 41.3163C33.8984 38.0637 35.0652 35.3704 37.4019 33.2359C39.7355 31 42.6296 29.8818 46.0843 29.8818C49.5359 29.8818 52.4301 30.949 54.7667 33.0835C57.1003 35.1164 58.2702 37.7082 58.2702 40.8589C58.2702 44.213 57.1003 47.0588 54.7667 49.3966C52.5306 51.6326 49.6365 52.7507 46.0843 52.7507ZM149.064 66.1671L114.182 147.58H94.5322L59.6502 66.1671H79.4522L104.738 126.541L130.785 66.1671H149.064ZM187.675 148.647C179.449 148.647 172.034 146.869 165.436 143.311C158.834 139.754 153.655 134.825 149.899 128.523C146.243 122.12 144.415 114.903 144.415 106.874C144.415 98.8442 146.243 91.6787 149.899 85.3769C153.655 79.0752 158.834 74.1459 165.436 70.5884C172.034 67.0309 179.449 65.2523 187.675 65.2523C196.001 65.2523 203.465 67.0309 210.066 70.5884C216.665 74.1459 221.795 79.0752 225.451 85.3769C229.207 91.6787 231.087 98.8442 231.087 106.874C231.087 114.903 229.207 122.12 225.451 128.523C221.795 134.825 216.665 139.754 210.066 143.311C203.465 146.869 196.001 148.647 187.675 148.647ZM187.675 132.334C194.682 132.334 200.47 129.996 205.04 125.321C209.609 120.646 211.894 114.497 211.894 106.874C211.894 99.2507 209.609 93.1014 205.04 88.4261C200.47 83.7508 194.682 81.413 187.675 81.413C180.668 81.413 174.88 83.7508 170.31 88.4261C165.841 93.1014 163.608 99.2507 163.608 106.874C163.608 114.497 165.841 120.646 170.31 125.321C174.88 129.996 180.668 132.334 187.675 132.334Z" fill="#F5F5F5"/>
</svg>
