<svg width="1014" height="250" viewBox="0 0 1014 250" fill="none" xmlns="http://www.w3.org/2000/svg">
<path d="M668.442 51.2295C668.442 22.9362 691.377 0 719.672 0H952.459C980.754 0 1003.69 22.9362 1003.69 51.2295V198.77C1003.69 227.064 980.754 250 952.459 250H719.672C691.377 250 668.442 227.064 668.442 198.77V51.2295Z" fill="#F5F5F5"/>
<path d="M19.2627 54.918H45.902V175.82H120.902V198.361H19.2627V54.918ZM129.228 88.9344H154.843V198.361H129.228V88.9344ZM142.138 70.9016C137.493 70.9016 133.6 69.4672 130.458 66.5984C127.316 63.593 125.745 59.9045 125.745 55.5328C125.745 51.1611 127.316 47.541 130.458 44.6721C133.6 41.6668 137.493 40.1639 142.138 40.1639C146.783 40.1639 150.677 41.5984 153.818 44.4672C156.961 47.1996 158.532 50.6832 158.532 54.918C158.532 59.4262 156.961 63.2512 153.818 66.3934C150.813 69.3988 146.92 70.9016 142.138 70.9016ZM240.307 87.7049C254.105 87.7049 265.17 91.7348 273.504 99.7951C281.837 107.855 286.004 119.809 286.004 135.656V198.361H260.389V138.934C260.389 129.372 258.135 122.2 253.627 117.418C249.118 112.5 242.698 110.041 234.364 110.041C224.938 110.041 217.493 112.91 212.028 118.648C206.564 124.249 203.832 132.377 203.832 143.033V198.361H178.217V88.9344H202.602V103.074C206.837 98.0193 212.165 94.1939 218.586 91.5984C225.006 89.0029 232.247 87.7049 240.307 87.7049ZM352.924 151.434L333.866 169.467V198.361H308.252V46.3115H333.866V138.115L386.94 88.9344H417.677L371.981 134.836L421.98 198.361H390.834L352.924 151.434ZM475.726 178.074C487.611 178.074 497.517 174.112 505.439 166.189L518.964 181.967C514.185 187.841 508.037 192.282 500.521 195.287C493.009 198.292 484.537 199.795 475.111 199.795C463.091 199.795 452.505 197.405 443.349 192.623C434.197 187.841 427.095 181.216 422.037 172.746C417.119 164.139 414.66 154.44 414.66 143.648C414.66 132.992 417.054 123.429 421.832 114.959C426.75 106.352 433.447 99.6586 441.914 94.8771C450.521 90.0955 460.222 87.7049 471.013 87.7049C481.259 87.7049 490.55 89.959 498.882 94.4672C507.353 98.8389 514.046 105.191 518.964 113.525C523.882 121.721 526.341 131.352 526.341 142.418L442.529 158.811C445.127 165.096 449.291 169.877 455.029 173.156C460.767 176.434 467.668 178.074 475.726 178.074ZM471.013 108.197C461.586 108.197 453.939 111.271 448.062 117.418C442.324 123.566 439.455 131.831 439.455 142.213V142.418L501.341 130.533C499.566 123.839 495.947 118.443 490.48 114.344C485.152 110.246 478.664 108.197 471.013 108.197ZM647.877 46.3115V198.361H623.287V184.221C619.054 189.413 613.791 193.306 607.509 195.902C601.361 198.497 594.529 199.795 587.017 199.795C576.496 199.795 567.005 197.473 558.533 192.828C550.201 188.183 543.644 181.626 538.861 173.156C534.078 164.549 531.689 154.713 531.689 143.648C531.689 132.582 534.078 122.814 538.861 114.344C543.644 105.874 550.201 99.3168 558.533 94.6721C567.005 90.0275 576.496 87.7049 587.017 87.7049C594.259 87.7049 600.882 88.9344 606.894 91.3935C612.906 93.8525 618.029 97.541 622.263 102.459V46.3115H647.877ZM590.091 177.869C596.238 177.869 601.771 176.503 606.689 173.771C611.607 170.902 615.5 166.872 618.369 161.68C621.238 156.489 622.673 150.478 622.673 143.648C622.673 136.817 621.238 130.806 618.369 125.615C615.5 120.423 611.607 116.462 606.689 113.73C601.771 110.861 596.238 109.426 590.091 109.426C583.943 109.426 578.41 110.861 573.492 113.73C568.574 116.462 564.681 120.423 561.812 125.615C558.943 130.806 557.509 136.817 557.509 143.648C557.509 150.478 558.943 156.489 561.812 161.68C564.681 166.872 568.574 170.902 573.492 173.771C578.41 176.503 583.943 177.869 590.091 177.869Z" fill="#F5F5F5"/>
<path d="M717.529 88.9344H743.143V198.361H717.529V88.9344ZM730.438 70.9016C725.791 70.9016 721.897 69.4672 718.758 66.5984C715.615 63.593 714.045 59.9045 714.045 55.5328C714.045 51.1611 715.615 47.541 718.758 44.6721C721.897 41.6668 725.791 40.1639 730.438 40.1639C735.082 40.1639 738.975 41.5984 742.119 44.4672C745.258 47.1996 746.832 50.6832 746.832 54.918C746.832 59.4262 745.258 63.2512 742.119 66.3934C739.11 69.3988 735.217 70.9016 730.438 70.9016ZM868.975 88.9344L822.049 198.361H795.615L748.688 88.9344H775.328L809.344 170.082L844.385 88.9344H868.975ZM920.918 199.795C909.852 199.795 899.877 197.405 891 192.623C882.119 187.841 875.151 181.216 870.098 172.746C865.18 164.139 862.721 154.44 862.721 143.648C862.721 132.855 865.18 123.224 870.098 114.754C875.151 106.284 882.119 99.6586 891 94.8771C899.877 90.0955 909.852 87.7049 920.918 87.7049C932.119 87.7049 942.16 90.0955 951.041 94.8771C959.918 99.6586 966.82 106.284 971.738 114.754C976.791 123.224 979.32 132.855 979.32 143.648C979.32 154.44 976.791 164.139 971.738 172.746C966.82 181.216 959.918 187.841 951.041 192.623C942.16 197.405 932.119 199.795 920.918 199.795ZM920.918 177.869C930.344 177.869 938.131 174.727 944.279 168.443C950.426 162.159 953.5 153.893 953.5 143.648C953.5 133.402 950.426 125.136 944.279 118.852C938.131 112.568 930.344 109.426 920.918 109.426C911.492 109.426 903.705 112.568 897.557 118.852C891.545 125.136 888.541 133.402 888.541 143.648C888.541 153.893 891.545 162.159 897.557 168.443C903.705 174.727 911.492 177.869 920.918 177.869Z" fill="#1E1E1E"/>
</svg>
