<svg width="754" height="186" viewBox="0 0 754 186" fill="none" xmlns="http://www.w3.org/2000/svg">
<path d="M496.878 38.1148C496.878 17.0646 513.926 0 534.959 0H707.998C729.031 0 746.079 17.0646 746.079 38.1148V147.885C746.079 168.936 729.031 186 707.998 186H534.959C513.926 186 496.878 168.936 496.878 147.885V38.1148Z" fill="#1E1E1E"/>
<path d="M14.3184 40.8589H34.1204V130.81H89.8707V147.58H14.3184V40.8589ZM96.0599 66.1671H115.1V147.58H96.0599V66.1671ZM105.656 52.7507C102.204 52.7507 99.3095 51.6835 96.9738 49.549C94.6384 47.3131 93.4704 44.5688 93.4704 41.3163C93.4704 38.0637 94.6384 35.3704 96.9738 33.2359C99.3095 31 102.204 29.8818 105.656 29.8818C109.109 29.8818 112.003 30.949 114.339 33.0835C116.674 35.1164 117.842 37.7082 117.842 40.8589C117.842 44.213 116.674 47.0588 114.339 49.3966C112.105 51.6326 109.211 52.7507 105.656 52.7507ZM178.629 65.2523C188.885 65.2523 197.111 68.2506 203.305 74.2474C209.5 80.2442 212.597 89.1375 212.597 100.928V147.58H193.557V103.367C193.557 96.2524 191.881 90.9164 188.53 87.3589C185.179 83.6999 180.406 81.8704 174.211 81.8704C167.205 81.8704 161.67 84.0048 157.608 88.2736C153.546 92.4409 151.515 98.4884 151.515 106.416V147.58H132.475V66.1671H150.601V76.6868C153.749 72.9262 157.71 70.0801 162.483 68.149C167.255 66.218 172.637 65.2523 178.629 65.2523ZM262.341 112.667L248.175 126.083V147.58H229.135V34.4556H248.175V102.757L287.627 66.1671H310.474L276.507 100.318L313.673 147.58H290.521L262.341 112.667ZM353.624 132.487C362.459 132.487 369.823 129.539 375.711 123.644L385.765 135.383C382.212 139.754 377.643 143.057 372.056 145.293C366.471 147.529 360.174 148.647 353.167 148.647C344.232 148.647 336.363 146.869 329.557 143.311C322.755 139.754 317.475 134.825 313.716 128.523C310.06 122.12 308.232 114.903 308.232 106.874C308.232 98.9458 310.011 91.8311 313.563 85.5294C317.219 79.1261 322.197 74.1459 328.491 70.5884C334.889 67.0309 342.1 65.2523 350.121 65.2523C357.737 65.2523 364.644 66.9294 370.837 70.2835C377.134 73.536 382.109 78.2623 385.765 84.4622C389.42 90.5605 391.248 97.7261 391.248 105.959L328.948 118.156C330.88 122.831 333.975 126.388 338.24 128.828C342.505 131.267 347.635 132.487 353.624 132.487ZM350.121 80.4982C343.114 80.4982 337.429 82.7851 333.061 87.3589C328.796 91.9327 326.663 98.0819 326.663 105.806V105.959L372.665 97.1163C371.346 92.136 368.656 88.1212 364.592 85.072C360.631 82.0228 355.809 80.4982 350.121 80.4982ZM481.591 34.4556V147.58H463.312V137.061C460.165 140.923 456.254 143.82 451.584 145.751C447.014 147.682 441.935 148.647 436.351 148.647C428.531 148.647 421.475 146.919 415.178 143.464C408.985 140.008 404.11 135.129 400.555 128.828C397 122.424 395.224 115.106 395.224 106.874C395.224 98.6408 397 91.3737 400.555 85.072C404.11 78.7703 408.985 73.8916 415.178 70.4359C421.475 66.9803 428.531 65.2523 436.351 65.2523C441.734 65.2523 446.657 66.1671 451.127 67.9966C455.596 69.8261 459.404 72.5704 462.551 76.2294V34.4556H481.591ZM438.636 132.334C443.206 132.334 447.318 131.318 450.974 129.285C454.63 127.151 457.524 124.152 459.657 120.29C461.789 116.428 462.855 111.956 462.855 106.874C462.855 101.792 461.789 97.3196 459.657 93.4572C457.524 89.5948 454.63 86.6475 450.974 84.6146C447.318 82.4802 443.206 81.413 438.636 81.413C434.066 81.413 429.954 82.4802 426.298 84.6146C422.642 86.6475 419.748 89.5948 417.615 93.4572C415.483 97.3196 414.417 101.792 414.417 106.874C414.417 111.956 415.483 116.428 417.615 120.29C419.748 124.152 422.642 127.151 426.298 129.285C429.954 131.318 434.066 132.334 438.636 132.334Z" fill="#1E1E1E"/>
<path d="M533.366 66.1671H552.406V147.58H533.366V66.1671ZM542.962 52.7507C539.508 52.7507 536.613 51.6835 534.28 49.549C531.943 47.3131 530.776 44.5688 530.776 41.3163C530.776 38.0637 531.943 35.3704 534.28 33.2359C536.613 31 539.508 29.8818 542.962 29.8818C546.414 29.8818 549.308 30.949 551.645 33.0835C553.978 35.1164 555.148 37.7082 555.148 40.8589C555.148 44.213 553.978 47.0588 551.645 49.3966C549.409 51.6326 546.514 52.7507 542.962 52.7507ZM645.942 66.1671L611.06 147.58H591.41L556.528 66.1671H576.33L601.616 126.541L627.663 66.1671H645.942ZM684.553 148.647C676.327 148.647 668.912 146.869 662.314 143.311C655.712 139.754 650.533 134.825 646.777 128.523C643.121 122.12 641.293 114.903 641.293 106.874C641.293 98.8442 643.121 91.6787 646.777 85.3769C650.533 79.0752 655.712 74.1459 662.314 70.5884C668.912 67.0309 676.327 65.2523 684.553 65.2523C692.879 65.2523 700.343 67.0309 706.944 70.5884C713.543 74.1459 718.673 79.0752 722.329 85.3769C726.085 91.6787 727.965 98.8442 727.965 106.874C727.965 114.903 726.085 122.12 722.329 128.523C718.673 134.825 713.543 139.754 706.944 143.311C700.343 146.869 692.879 148.647 684.553 148.647ZM684.553 132.334C691.56 132.334 697.348 129.996 701.918 125.321C706.487 120.646 708.772 114.497 708.772 106.874C708.772 99.2507 706.487 93.1014 701.918 88.4261C697.348 83.7508 691.56 81.413 684.553 81.413C677.546 81.413 671.758 83.7508 667.188 88.4261C662.719 93.1014 660.486 99.2507 660.486 106.874C660.486 114.497 662.719 120.646 667.188 125.321C671.758 129.996 677.546 132.334 684.553 132.334Z" fill="#F5F5F5"/>
</svg>
